<?xml version="1.0" encoding="UTF-8"?>
<svg width="500px" height="493px" viewBox="0 0 500 493" version="1.1" xmlns="http://www.w3.org/2000/svg" xmlns:xlink="http://www.w3.org/1999/xlink">
    <!-- Generator: Sketch 43.2 (39069) - http://www.bohemiancoding.com/sketch -->
    <title>Safari Pinned Tabs</title>
    <desc>Created with Sketch.</desc>
    <defs></defs>
    <g id="Page-1" stroke="none" stroke-width="1" fill="none" fill-rule="evenodd">
        <g id="Safari-Pinned-Tabs" transform="translate(-250.000000, -250.000000)" fill="#000000">
            <path d="M498.57987,749.996051 C499.052937,749.998683 499.526314,750 500,750 C500.473686,750 500.947063,749.998683 501.42013,749.996051 L498.57987,749.996051 Z M280.938989,620.563038 C261.22063,584.811344 250,543.716031 250,500 C250,361.928813 361.928813,250 500,250 C638.071187,250 750,361.928813 750,500 C750,617.709133 668.650274,716.418018 559.105309,742.972171 L559.105309,739.782341 L559.279611,733.896497 L559.048973,728.458929 L559.077863,721.68472 L558.670997,714.865249 L558.302169,707.406348 L557.69548,701.454539 L557.563549,695.250425 L557.06279,691.337282 L556.873561,688.2658 L556.57118,684.158132 L556.285651,681.894605 C556.285651,681.894605 555.851627,674.250305 556.285651,670.44175 C556.489219,668.655443 556.61336,662.896401 559.279611,658.171063 C561.945863,653.445725 562.474465,650.93633 567.765775,649.288401 C573.057085,647.640472 578.524181,650.376498 587.800814,649.288401 C597.077446,648.200304 605.983801,644.204142 606.712559,643.621695 C608.129284,642.489402 607.852305,642.94845 608.837414,642.073194 C609.326359,641.638773 612.635723,639.320908 615.501166,635.175874 C618.366608,631.030841 620.703003,625.175975 620.8875,624.384773 C621.62791,621.209557 622.181907,615.087575 622.202201,613.41309 C622.24867,609.579041 619.009093,607.343145 619.009093,607.343145 L618.143557,606.496697 L617.071465,605.820675 L616.010508,605.242818 L614.702547,604.717907 L612.926029,604.286161 C612.926029,604.286161 609.594971,603.567394 608.42766,603.076018 C607.260348,602.584642 604.949086,600.891853 604.949086,600.891853 C604.949086,600.891853 603.545899,599.630343 604.949086,596.602063 C606.352272,593.573782 610.360399,595.784353 610.360399,595.784353 C610.360399,595.784353 610.787449,596.963575 615.42721,595.784353 C620.06697,594.605131 624.924491,590.19412 626.79072,587.745019 C629.93325,583.620995 632.958793,572.961596 632.958793,572.961596 C632.958793,572.961596 636.797432,566.396785 637.734965,563.215087 C638.672498,560.033389 638.705296,553.459734 638.705296,553.459734 L638.494202,550.500464 L637.734965,548.267956 C637.734965,548.267956 635.816712,544.8221 635.027165,543.681445 C634.237619,542.540791 632.104761,540.134025 632.104761,540.134025 L630.065353,537.536819 L628.12469,534.870712 L625.80397,532.534192 L622.202201,529.20452 L619.633961,526.924176 L616.630805,523.805598 L615.501166,521.986501 L613.857176,520.344705 L611.226616,517.996776 L607.688484,514.7303 L605.097422,512.635596 L602.499339,510.55669 L599.656808,508.031459 L597.823667,505.947287 C597.823667,505.947287 599.940087,496.408508 599.61719,488.386432 C599.294294,480.364356 596.532682,472.137389 595.298133,470.029624 C592.693749,465.583119 588.617148,463.32029 588.617148,463.32029 L586.58959,461.811909 L584.731434,460.306601 C584.731434,460.306601 582.733341,456.812923 582.634096,455.321436 C582.534852,453.82995 584.082352,450.551939 584.082352,450.551939 L584.831934,447.863889 L584.888987,444.929635 L584.630934,441.561343 L583.628126,438.009605 L582.634096,435.177167 L581.161703,432.77789 L580.132563,432.024797 L577.889529,429.7318 C577.889529,429.7318 574.833223,425.996589 573.850531,423.415575 C572.867839,420.83456 572.118442,414.574192 572.118442,414.574192 L572.112298,407.859551 L571.660705,404.107252 L571.660705,399.962607 L571.605408,392.996496 L571.547478,389.025642 L570.701292,381.543865 L569.732331,373.375263 L568.948956,368.751377 L567.765775,364.552313 L566.439524,359.330692 L564.940359,355.756572 L562.98302,351.098016 L561.621659,347.670916 L559.910962,342.822331 L557.670115,338.051425 L555.175165,334.100758 L552.661344,331.92223 L549.233366,330 L546.342999,330.771964 L543.037465,332.577018 L540.607028,335.104005 L537.917222,338.18484 L534.590622,342.496254 L530.837445,348.191849 L528.82042,352.373797 L527.343199,356.340263 L526.117009,361.647901 L525.617141,364.810365 L525.244544,369.013818 L524.450198,374.705025 L522.61223,381.113777 L521.820955,385.405441 L520.285804,390.143432 L518.661563,395.367686 L516.362786,400.694196 L514.604691,405.541025 L512.375694,411.135681 L511.049881,415.970223 C511.049881,415.970223 509.712473,418.284199 508.774335,419.006724 C507.836198,419.72925 504.903133,420.704264 504.903133,420.704264 L502.714511,421.396794 L499.307599,422.430322 L496.675284,423.415575 C496.675284,423.415575 492.177394,424.664107 489.766082,424.91825 C487.35477,425.172392 482.417863,424.91825 482.417863,424.91825 L478.377668,424.251613 C478.377668,424.251613 474.043004,421.378707 472.460497,419.942833 C470.87799,418.506958 468.423762,415.147789 468.423762,415.147789 L466.744663,412.186764 L466.03809,410.124097 L465.501357,407.024829 L464.191783,402.357057 L462.771175,396.712809 L461.03283,393.064959 L459.249719,389.931021 L457.29238,385.969822 L455.255166,381.543865 L453.427731,377.096403 L451.115349,372.993011 L448.56598,368.883036 L445.096749,364.29031 L441.849584,360.898758 L439.024168,357.041131 L436.235617,354.164368 L432.946321,351.309549 L429.450319,347.584898 L426.374312,344.471148 L422.737434,341.404795 L418.401883,337.530492 L416.857954,336.012895 L415.237663,335.394534 L413.897368,335.394534 L412.125668,337.163161 L409.089159,340.265062 L406.469132,343.35248 L403.433939,346.727355 L401.114096,350.986544 L400.275863,353.743496 L398.232506,359.407055 C398.232506,359.407055 396.576286,362.8925 395.871075,366.727528 C395.165864,370.562555 394.795751,378.096577 394.795751,378.096577 L394.725533,383.012308 L394.201088,388.068477 L393.472133,392.876686 L392.468448,397.794173 C392.468448,397.794173 387.649576,418.860699 385.757578,441.561343 C383.86558,464.261986 384.983,487.553167 384.253765,491.835055 C382.813095,500.294311 377.600127,509.845728 377.600127,509.845728 L376.212434,515.371044 L372.195499,525.573348 L368.770593,535.002371 L367.145914,541.579647 C367.145914,541.579647 366.973426,543.77831 365.937401,545.250268 C364.901376,546.722226 363.149166,547.258127 363.149166,547.258127 L356.345436,550.490809 L341.476676,557.340621 L331.96734,561.75824 L323.186521,566.340434 L316.055397,571.828446 L310.254474,578.025225 L305.987824,584.984314 L302.210949,593.885821 L298.418713,599.399287 L294.541337,603.369264 L291.011091,608.090532 C291.011091,608.090532 288.029852,612.272643 286.57029,614.356667 C285.110728,616.44069 281.653176,619.56998 281.653176,619.56998 L280.938994,620.563047 Z"></path>
        </g>
    </g>
</svg>